<?xml version="1.0" standalone="no"?>
<!DOCTYPE svg PUBLIC "-//W3C//DTD SVG 20010904//EN"
 "http://www.w3.org/TR/2001/REC-SVG-20010904/DTD/svg10.dtd">
<svg version="1.0" xmlns="http://www.w3.org/2000/svg"
 width="100.000000pt" height="100.000000pt" viewBox="0 0 100.000000 100.000000"
 preserveAspectRatio="xMidYMid meet">
<metadata>
Created by potrace 1.14, written by Peter Selinger 2001-2017
</metadata>
<g transform="translate(0.000000,100.000000) scale(0.100000,-0.100000)"
fill="#000000" stroke="none">
<path d="M348 971 c-75 -24 -144 -69 -205 -134 -96 -101 -133 -196 -133 -337
0 -141 37 -236 133 -337 101 -107 208 -153 357 -153 149 0 256 46 357 153 96
101 133 196 133 337 0 141 -37 236 -133 337 -102 108 -209 153 -360 152 -60 0
-112 -6 -149 -18z m294 -32 c193 -65 318 -237 318 -439 0 -348 -374 -571 -679
-404 -307 167 -326 601 -35 790 116 75 270 96 396 53z"/>
<path d="M487 904 c-11 -11 -8 -97 3 -114 17 -25 31 8 28 64 -3 46 -15 66 -31
50z"/>
<path d="M578 657 l-148 -92 -90 -145 c-78 -127 -103 -180 -85 -180 3 0 75 43
160 96 l154 95 95 154 c53 85 96 157 96 160 0 19 -54 -7 -182 -88z m92 8 c0
-3 -29 -52 -65 -108 -63 -101 -66 -104 -162 -164 -136 -83 -127 -79 -114 -55
6 12 36 61 66 109 51 83 60 92 157 155 98 64 118 74 118 63z"/>
<path d="M95 510 c-12 -19 7 -30 53 -30 56 0 86 14 62 30 -20 13 -107 13 -115
0z"/>
<path d="M785 510 c-13 -21 12 -31 71 -28 44 2 59 7 59 18 0 19 -119 28 -130
10z"/>
<path d="M484 207 c-3 -8 -4 -39 -2 -68 2 -40 7 -54 18 -54 20 0 22 126 3 132
-7 3 -15 -2 -19 -10z"/>
</g>
</svg>
